<svg xmlns="http://www.w3.org/2000/svg" viewBox="0 0 429.01 81.57"><defs><style>.cls-1{fill:#343a53;}.cls-2{fill:#3d94f1;}.cls-3{fill:#8a64ee;}.cls-4{fill:#4ccdcd;}</style></defs><title>Ativo 1</title><g id="Camada_2" data-name="Camada 2"><g id="Layer_1" data-name="Layer 1"><path class="cls-1" d="M141.61,61.51c-1.92-1.8-2.71-4.58-2.37-8.36a3.27,3.27,0,0,1,1.07-2.24,3.49,3.49,0,0,1,2.37-.8c1.8,0,2.59,1,2.39,2.9s.32,3.49,1.36,4.25,2.95,1.14,5.71,1.14h5.74a14.94,14.94,0,0,0,5.22-.73,5.81,5.81,0,0,0,3-2.48,16.15,16.15,0,0,0,1.75-5.08l6-29.84a3.22,3.22,0,0,1,3.48-2.9,2.4,2.4,0,0,1,2,.76,2.51,2.51,0,0,1,.33,2.14l-6,29.84q-1.47,7.32-5.56,10.71T156.72,64.2H151Q144.49,64.2,141.61,61.51Z"/><path class="cls-1" d="M227.92,61.51a3.32,3.32,0,0,1-2.35,2.42,3.79,3.79,0,0,1-1.43.27,2,2,0,0,1-2-1.86l-1.92-9.05H198.69l-5.4,9.05a3.28,3.28,0,0,1-2.79,1.86,2.91,2.91,0,0,1-1.26-.27,2,2,0,0,1-1.46-2.42,4,4,0,0,1,.56-1.38l24.54-40.48a4.35,4.35,0,0,1,3.71-2.28h.13a2.47,2.47,0,0,1,2.58,2.28l8.62,40.48A3.2,3.2,0,0,1,227.92,61.51Zm-25.79-14H219l-4.45-20.93Z"/><path class="cls-1" d="M244.89,61.3l8.21-41a3.23,3.23,0,0,1,3.48-2.9c1.93,0,2.71,1,2.32,2.9L251.27,58.4h19.14c1.93,0,2.71,1,2.32,2.9a3.23,3.23,0,0,1-3.49,2.9h-22C245.28,64.2,244.5,63.24,244.89,61.3Z"/><path class="cls-1" d="M319.44,59.16a2.55,2.55,0,0,1,.33,2.14,3.63,3.63,0,0,1-1.19,2.14,3.44,3.44,0,0,1-2.29.76h-24.8a2.37,2.37,0,0,1-2-.76,2.51,2.51,0,0,1-.34-2.14l8.22-41a3.59,3.59,0,0,1,1.18-2.14,3.49,3.49,0,0,1,2.3-.76h24.8a2.4,2.4,0,0,1,2,.76,2.54,2.54,0,0,1,.33,2.14,3.63,3.63,0,0,1-1.19,2.14,3.44,3.44,0,0,1-2.29.76H302.6l-2.9,14.51h13.74a2.4,2.4,0,0,1,2,.76,2.48,2.48,0,0,1,.33,2.14,3.58,3.58,0,0,1-1.19,2.14,3.44,3.44,0,0,1-2.29.76H298.53l-3,14.92h21.9A2.4,2.4,0,0,1,319.44,59.16Z"/><path class="cls-1" d="M368.71,61.09A4.24,4.24,0,0,1,365,64a2.09,2.09,0,0,1-1.91-1.17L350.38,41.89,346.79,45l-3.26,16.3a3.63,3.63,0,0,1-1.19,2.14,3.44,3.44,0,0,1-2.29.76,2.42,2.42,0,0,1-2-.76,2.52,2.52,0,0,1-.32-2.14l8.21-41a3.59,3.59,0,0,1,1.18-2.14,3.47,3.47,0,0,1,2.3-.76,2.4,2.4,0,0,1,2,.76,2.51,2.51,0,0,1,.33,2.14l-3.29,16.44,21.26-18.24a3.73,3.73,0,0,1,2.29-1,2.28,2.28,0,0,1,1.8,1,2.49,2.49,0,0,1,.63,2.08,3.65,3.65,0,0,1-1.37,2l-17.69,15.2,13,21.48A2.66,2.66,0,0,1,368.71,61.09Z"/><path class="cls-1" d="M387.46,60.44q-3-3.78-1.42-11.71l3.2-16q1.58-7.94,6.14-11.71t12.41-3.69h8.29q7.95,0,11,3.76t1.42,11.71l-3.18,15.89q-1.59,7.94-6.11,11.71T406.71,64.2h-8.29Q390.47,64.2,387.46,60.44Zm20.41-2a16.32,16.32,0,0,0,6-.9,7.4,7.4,0,0,0,3.53-2.94,17.27,17.27,0,0,0,2.07-5.83l3.18-15.89a14.62,14.62,0,0,0,.26-5.8,4.18,4.18,0,0,0-2.38-3,13.58,13.58,0,0,0-5.62-.9h-8.29a15.51,15.51,0,0,0-6,.83,7.33,7.33,0,0,0-3.56,3,17.23,17.23,0,0,0-2.06,5.8l-3.19,16a14.27,14.27,0,0,0-.27,5.83,4.17,4.17,0,0,0,2.34,2.94,13.6,13.6,0,0,0,5.66.9Z"/><path class="cls-2" d="M64.14,74.12a78.35,78.35,0,0,1,29.39-6,66.42,66.42,0,0,1,8.63.56l12-68.13a61.76,61.76,0,0,0-8-.51,75.32,75.32,0,0,0-43.7,14.56L59.82,29.63h2.29a9.24,9.24,0,0,1,7.25,3.24,9.48,9.48,0,0,1,2,7.9A12.92,12.92,0,0,1,58.94,51.26H56l-1.34,7.59L53.5,65.51h2.28a9.44,9.44,0,0,1,6.72,2.66,6.76,6.76,0,0,1,1.7,5.73A1.41,1.41,0,0,1,64.14,74.12Z"/><path class="cls-3" d="M12,.59l-12,68a70.21,70.21,0,0,1,8.17-.48c15,0,29.17,5,38.75,13.49L49.1,69.2H46.81A9.28,9.28,0,0,1,39.56,66a9.52,9.52,0,0,1-2-7.9A13.11,13.11,0,0,1,50,47.57h2.93l2.52-14.25H53.14a9.24,9.24,0,0,1-7.25-3.24,9.46,9.46,0,0,1-2-7.89A13.11,13.11,0,0,1,56.06,11.71C47.18,4.34,34.39,0,20.82,0A67.39,67.39,0,0,0,12,.59Z"/><path class="cls-4" d="M56.3,15.38a9.39,9.39,0,0,0-8.73,7.44,5.83,5.83,0,0,0,1.14,4.89,5.63,5.63,0,0,0,4.43,1.92h2.94l2.51-14.25Z"/><path class="cls-4" d="M67.68,40.13a5.88,5.88,0,0,0-1.14-4.89,5.65,5.65,0,0,0-4.43-1.92H59.18l-2.48,14,0,.2h2.28A9.26,9.26,0,0,0,67.68,40.13Z"/><path class="cls-4" d="M52.71,80c1.39-.87,2.81-1.7,4.28-2.48l1.18-.65a4.87,4.87,0,0,0,2.38-3.47,3.11,3.11,0,0,0-.68-2.62,5.7,5.7,0,0,0-4.09-1.55H52.85l-2.11,12c.47-.31,1-.59,1.47-.9Z"/><path class="cls-4" d="M52.26,51.26H50a9.26,9.26,0,0,0-8.74,7.45,5.85,5.85,0,0,0,1.14,4.88,5.63,5.63,0,0,0,4.43,1.92h2.94Z"/></g></g></svg>